<?xml version="1.0" encoding="UTF-8"?>
<svg id="Layer_2" data-name="Layer 2" xmlns="http://www.w3.org/2000/svg" viewBox="0 0 850.45 273.72">
  <defs>
    <style>
      .cls-1 {
        fill: #fff;
        stroke-width: 0px;
      }
    </style>
  </defs>
  <g id="Layer_1-2" data-name="Layer 1">
    <g>
      <g>
        <g>
          <path class="cls-1" d="M146.4,13.37v161.33h-30.9v-67.3h-12.17c-32.53,0-66.71,8.99-66.71,67.3H5.97V13.37h30.66v97.49c16.85-26.04,43.77-31.11,61.79-31.11h17.09V13.37h30.9Z"/>
          <path class="cls-1" d="M303.22,112.47c0,36.18-28.55,65.68-66.94,65.68s-66.71-29.5-66.71-65.68,28.55-65.91,66.71-65.91,66.94,29.5,66.94,65.91ZM272.79,112.47c0-20.05-12.64-38.72-36.51-38.72s-36.28,18.67-36.28,38.72,12.64,38.49,36.28,38.49,36.51-18.67,36.51-38.49Z"/>
          <path class="cls-1" d="M409.95,50.24v27.43h-35.81c-15.92,0-20.83,6.45-20.83,20.51v76.52h-29.49v-85.73c0-23.05,15.92-38.72,39.32-38.72h46.81Z"/>
          <path class="cls-1" d="M551.09,174.7h-35.11l-31.13-44.02-31.36,44.02h-25.75V0h29.49v121.23l50.32-71.21h34.17l-39.32,55.77,48.68,68.91Z"/>
          <path class="cls-1" d="M686.38,112.47c0,36.18-28.55,65.68-66.94,65.68s-66.71-29.5-66.71-65.68,28.55-65.91,66.71-65.91,66.94,29.5,66.94,65.91ZM655.95,112.47c0-20.05-12.64-38.72-36.51-38.72s-36.28,18.67-36.28,38.72,12.64,38.49,36.28,38.49,36.51-18.67,36.51-38.49Z"/>
          <path class="cls-1" d="M804.58,138.51c0,27.43-19.89,39.64-50.79,39.64-26.45,0-49.85-16.36-49.85-43.1h27.38c0,13.14,13.34,18.67,25.51,18.67,10.53,0,20.13-4.15,20.13-11.06,0-23.74-71.85-6.22-71.85-56,0-27.2,22.24-40.1,47.98-40.1,32.77,0,48.92,15.67,48.92,42.18h-26.21c0-11.29-12.41-16.59-24.11-16.59-10.3,0-20.13,4.15-20.13,12.45,0,25.35,73.02,4.38,73.02,53.93Z"/>
        </g>
        <g>
          <path class="cls-1" d="M.25,256.91c5.1,4.17,10.9,6.25,17.4,6.25,3.68,0,6.45-.62,8.31-1.87,1.86-1.25,2.78-2.86,2.78-4.82,0-1.69-.74-3.29-2.21-4.8-1.47-1.5-5.36-3.55-11.67-6.13-9.91-4.14-14.86-10.16-14.86-18.06,0-5.8,2.25-10.31,6.73-13.52,4.49-3.21,10.43-4.82,17.83-4.82,6.19,0,11.39.79,15.6,2.38v12.5c-4.26-2.85-9.24-4.27-14.94-4.27-3.33,0-5.99.6-7.98,1.79-1.99,1.2-2.99,2.8-2.99,4.82,0,1.61.68,3.1,2.05,4.45,1.36,1.36,4.73,3.19,10.11,5.5,6.3,2.66,10.64,5.47,13,8.42,2.36,2.96,3.54,6.48,3.54,10.56,0,5.99-2.16,10.56-6.47,13.7-4.31,3.14-10.44,4.72-18.38,4.72-7.26,0-13.21-1.15-17.85-3.47v-13.34Z"/>
          <path class="cls-1" d="M139.26,221.08h-18.09v51.55h-13.55v-51.55h-18.05v-10.88h49.69v10.88Z"/>
          <path class="cls-1" d="M241.02,245.79c0,18.62-8.79,27.93-26.36,27.93s-25.46-9.07-25.46-27.21v-36.32h13.55v36.4c0,10.4,4.16,15.6,12.49,15.6s12.28-5.01,12.28-15.03v-36.96h13.51v35.59Z"/>
          <path class="cls-1" d="M296.85,272.63v-62.43h21.9c22.51,0,33.77,10.14,33.77,30.43,0,9.65-3.15,17.39-9.46,23.24-6.3,5.84-14.44,8.77-24.4,8.77h-21.82ZM310.36,221.08v40.67h7.37c6.41,0,11.45-1.88,15.1-5.64,3.66-3.76,5.49-8.85,5.49-15.28s-1.91-11.05-5.73-14.53c-3.82-3.48-8.79-5.22-14.9-5.22h-7.33Z"/>
          <path class="cls-1" d="M418.59,210.2v62.43h-13.51v-62.43h13.51Z"/>
          <path class="cls-1" d="M471.19,242.24c0-9.78,2.9-17.74,8.7-23.88,5.8-6.14,13.46-9.21,22.98-9.21s16.35,2.97,21.88,8.91,8.29,13.57,8.29,22.89-2.87,17.62-8.62,23.68c-5.75,6.06-13.27,9.09-22.58,9.09s-16.47-2.93-22.14-8.81c-5.68-5.87-8.51-13.43-8.51-22.67ZM485.39,241.52c0,6.07,1.49,11.04,4.46,14.89,2.97,3.86,7.05,5.78,12.24,5.78s9.41-1.85,12.36-5.54c2.95-3.69,4.42-8.66,4.42-14.89s-1.43-11.64-4.3-15.42c-2.87-3.77-6.9-5.66-12.12-5.66s-9.46,1.93-12.5,5.8c-3.04,3.87-4.56,8.88-4.56,15.03Z"/>
        </g>
      </g>
      <g>
        <path class="cls-1" d="M844.42,113.26h-3.56V17.54h-110.75v-3.62h110.95c1.85,0,3.36,1.53,3.36,3.42v95.93Z"/>
        <rect class="cls-1" x="832.83" y="6.76" width="17.62" height="17.93"/>
        <rect class="cls-1" x="837.51" y="109.35" width="10.28" height="10.45"/>
        <rect class="cls-1" x="724.16" y="10.5" width="10.28" height="10.45"/>
      </g>
    </g>
  </g>
</svg>